<svg id="visual" viewBox="0 0 1980 300" width="1980" height="300" xmlns="http://www.w3.org/2000/svg" xmlns:xlink="http://www.w3.org/1999/xlink" version="1.1"><path d="M0 136L30 127.5C60 119 120 102 180 98.5C240 95 300 105 360 103C420 101 480 87 540 79C600 71 660 69 720 71C780 73 840 79 900 79C960 79 1020 73 1080 79C1140 85 1200 103 1260 103.5C1320 104 1380 87 1440 86C1500 85 1560 100 1620 102C1680 104 1740 93 1800 86C1860 79 1920 76 1950 74.5L1980 73L1980 0L1950 0C1920 0 1860 0 1800 0C1740 0 1680 0 1620 0C1560 0 1500 0 1440 0C1380 0 1320 0 1260 0C1200 0 1140 0 1080 0C1020 0 960 0 900 0C840 0 780 0 720 0C660 0 600 0 540 0C480 0 420 0 360 0C300 0 240 0 180 0C120 0 60 0 30 0L0 0Z" fill="#6198ff"></path><path d="M0 154L30 150.5C60 147 120 140 180 137C240 134 300 135 360 130.5C420 126 480 116 540 109C600 102 660 98 720 97.5C780 97 840 100 900 102.5C960 105 1020 107 1080 115C1140 123 1200 137 1260 137.5C1320 138 1380 125 1440 125C1500 125 1560 138 1620 137C1680 136 1740 121 1800 111C1860 101 1920 96 1950 93.5L1980 91L1980 71L1950 72.5C1920 74 1860 77 1800 84C1740 91 1680 102 1620 100C1560 98 1500 83 1440 84C1380 85 1320 102 1260 101.5C1200 101 1140 83 1080 77C1020 71 960 77 900 77C840 77 780 71 720 69C660 67 600 69 540 77C480 85 420 99 360 101C300 103 240 93 180 96.5C120 100 60 117 30 125.5L0 134Z" fill="#3c80ff"></path><path d="M0 181L30 179.5C60 178 120 175 180 171.5C240 168 300 164 360 162C420 160 480 160 540 154.5C600 149 660 138 720 138.5C780 139 840 151 900 152.5C960 154 1020 145 1080 148C1140 151 1200 166 1260 168C1320 170 1380 159 1440 159C1500 159 1560 170 1620 168.5C1680 167 1740 153 1800 143C1860 133 1920 127 1950 124L1980 121L1980 89L1950 91.5C1920 94 1860 99 1800 109C1740 119 1680 134 1620 135C1560 136 1500 123 1440 123C1380 123 1320 136 1260 135.5C1200 135 1140 121 1080 113C1020 105 960 103 900 100.5C840 98 780 95 720 95.5C660 96 600 100 540 107C480 114 420 124 360 128.5C300 133 240 132 180 135C120 138 60 145 30 148.5L0 152Z" fill="#0066ff"></path><path d="M0 256L30 251.5C60 247 120 238 180 234.5C240 231 300 233 360 236.5C420 240 480 245 540 249.5C600 254 660 258 720 259C780 260 840 258 900 258.5C960 259 1020 262 1080 258.5C1140 255 1200 245 1260 238C1320 231 1380 227 1440 230.5C1500 234 1560 245 1620 250.5C1680 256 1740 256 1800 252C1860 248 1920 240 1950 236L1980 232L1980 119L1950 122C1920 125 1860 131 1800 141C1740 151 1680 165 1620 166.5C1560 168 1500 157 1440 157C1380 157 1320 168 1260 166C1200 164 1140 149 1080 146C1020 143 960 152 900 150.5C840 149 780 137 720 136.5C660 136 600 147 540 152.5C480 158 420 158 360 160C300 162 240 166 180 169.5C120 173 60 176 30 177.5L0 179Z" fill="#0059dd"></path><path d="M0 301L30 301C60 301 120 301 180 301C240 301 300 301 360 301C420 301 480 301 540 301C600 301 660 301 720 301C780 301 840 301 900 301C960 301 1020 301 1080 301C1140 301 1200 301 1260 301C1320 301 1380 301 1440 301C1500 301 1560 301 1620 301C1680 301 1740 301 1800 301C1860 301 1920 301 1950 301L1980 301L1980 230L1950 234C1920 238 1860 246 1800 250C1740 254 1680 254 1620 248.5C1560 243 1500 232 1440 228.5C1380 225 1320 229 1260 236C1200 243 1140 253 1080 256.5C1020 260 960 257 900 256.5C840 256 780 258 720 257C660 256 600 252 540 247.5C480 243 420 238 360 234.5C300 231 240 229 180 232.5C120 236 60 245 30 249.5L0 254Z" fill="#004cbb"></path></svg>