<svg id="visual" viewBox="0 0 1921 300" width="1921" height="300" xmlns="http://www.w3.org/2000/svg" xmlns:xlink="http://www.w3.org/1999/xlink" version="1.1"><path d="M0 34L32 35.5C64 37 128 40 192 40C256 40 320 37 384 35.5C448 34 512 34 576 36.5C640 39 704 44 768.2 46C832.3 48 896.7 47 960.8 49C1025 51 1089 56 1153 58C1217 60 1281 59 1345 57C1409 55 1473 52 1537 48.5C1601 45 1665 41 1729 40C1793 39 1857 41 1889 42L1921 43L1921 0L1889 0C1857 0 1793 0 1729 0C1665 0 1601 0 1537 0C1473 0 1409 0 1345 0C1281 0 1217 0 1153 0C1089 0 1025 0 960.8 0C896.7 0 832.3 0 768.2 0C704 0 640 0 576 0C512 0 448 0 384 0C320 0 256 0 192 0C128 0 64 0 32 0L0 0Z" fill="#39d094"></path><path d="M0 67L32 71C64 75 128 83 192 84.5C256 86 320 81 384 77C448 73 512 70 576 73C640 76 704 85 768.2 87C832.3 89 896.7 84 960.8 84.5C1025 85 1089 91 1153 92.5C1217 94 1281 91 1345 91C1409 91 1473 94 1537 90.5C1601 87 1665 77 1729 73.5C1793 70 1857 73 1889 74.5L1921 76L1921 41L1889 40C1857 39 1793 37 1729 38C1665 39 1601 43 1537 46.5C1473 50 1409 53 1345 55C1281 57 1217 58 1153 56C1089 54 1025 49 960.8 47C896.7 45 832.3 46 768.2 44C704 42 640 37 576 34.5C512 32 448 32 384 33.5C320 35 256 38 192 38C128 38 64 35 32 33.5L0 32Z" fill="#2db77c"></path><path d="M0 190L32 194.5C64 199 128 208 192 204.5C256 201 320 185 384 170.5C448 156 512 143 576 147.5C640 152 704 174 768.2 180.5C832.3 187 896.7 178 960.8 172.5C1025 167 1089 165 1153 168.5C1217 172 1281 181 1345 192C1409 203 1473 216 1537 205C1601 194 1665 159 1729 155.5C1793 152 1857 180 1889 194L1921 208L1921 74L1889 72.5C1857 71 1793 68 1729 71.5C1665 75 1601 85 1537 88.5C1473 92 1409 89 1345 89C1281 89 1217 92 1153 90.5C1089 89 1025 83 960.8 82.5C896.7 82 832.3 87 768.2 85C704 83 640 74 576 71C512 68 448 71 384 75C320 79 256 84 192 82.5C128 81 64 73 32 69L0 65Z" fill="#219e65"></path><path d="M0 259L32 256C64 253 128 247 192 238C256 229 320 217 384 205C448 193 512 181 576 186.5C640 192 704 215 768.2 225C832.3 235 896.7 232 960.8 226C1025 220 1089 211 1153 212.5C1217 214 1281 226 1345 235C1409 244 1473 250 1537 240C1601 230 1665 204 1729 204.5C1793 205 1857 232 1889 245.5L1921 259L1921 206L1889 192C1857 178 1793 150 1729 153.5C1665 157 1601 192 1537 203C1473 214 1409 201 1345 190C1281 179 1217 170 1153 166.5C1089 163 1025 165 960.8 170.5C896.7 176 832.3 185 768.2 178.5C704 172 640 150 576 145.5C512 141 448 154 384 168.5C320 183 256 199 192 202.5C128 206 64 197 32 192.5L0 188Z" fill="#12864f"></path><path d="M0 301L32 301C64 301 128 301 192 301C256 301 320 301 384 301C448 301 512 301 576 301C640 301 704 301 768.2 301C832.3 301 896.7 301 960.8 301C1025 301 1089 301 1153 301C1217 301 1281 301 1345 301C1409 301 1473 301 1537 301C1601 301 1665 301 1729 301C1793 301 1857 301 1889 301L1921 301L1921 257L1889 243.5C1857 230 1793 203 1729 202.5C1665 202 1601 228 1537 238C1473 248 1409 242 1345 233C1281 224 1217 212 1153 210.5C1089 209 1025 218 960.8 224C896.7 230 832.3 233 768.2 223C704 213 640 190 576 184.5C512 179 448 191 384 203C320 215 256 227 192 236C128 245 64 251 32 254L0 257Z" fill="#006e3b"></path></svg>