<svg id="visual" viewBox="0 0 1920 300" width="1920" height="300" xmlns="http://www.w3.org/2000/svg" xmlns:xlink="http://www.w3.org/1999/xlink" version="1.1"><path d="M0 37L29.2 41.5C58.3 46 116.7 55 174.8 56.5C233 58 291 52 349.2 49C407.3 46 465.7 46 523.8 46C582 46 640 46 698.2 45C756.3 44 814.7 42 872.8 44C931 46 989 52 1047.2 54.5C1105.3 57 1163.7 56 1221.8 52C1280 48 1338 41 1396.2 42C1454.3 43 1512.7 52 1570.8 56C1629 60 1687 59 1745.2 55C1803.3 51 1861.7 44 1890.8 40.5L1920 37L1920 0L1890.8 0C1861.7 0 1803.3 0 1745.2 0C1687 0 1629 0 1570.8 0C1512.7 0 1454.3 0 1396.2 0C1338 0 1280 0 1221.8 0C1163.7 0 1105.3 0 1047.2 0C989 0 931 0 872.8 0C814.7 0 756.3 0 698.2 0C640 0 582 0 523.8 0C465.7 0 407.3 0 349.2 0C291 0 233 0 174.8 0C116.7 0 58.3 0 29.2 0L0 0Z" fill="#ce9c74"></path><path d="M0 106L29.2 106.5C58.3 107 116.7 108 174.8 109.5C233 111 291 113 349.2 120C407.3 127 465.7 139 523.8 144.5C582 150 640 149 698.2 152.5C756.3 156 814.7 164 872.8 159.5C931 155 989 138 1047.2 134.5C1105.3 131 1163.7 141 1221.8 141.5C1280 142 1338 133 1396.2 128C1454.3 123 1512.7 122 1570.8 133C1629 144 1687 167 1745.2 165C1803.3 163 1861.7 136 1890.8 122.5L1920 109L1920 35L1890.8 38.5C1861.7 42 1803.3 49 1745.2 53C1687 57 1629 58 1570.8 54C1512.7 50 1454.3 41 1396.2 40C1338 39 1280 46 1221.8 50C1163.7 54 1105.3 55 1047.2 52.5C989 50 931 44 872.8 42C814.7 40 756.3 42 698.2 43C640 44 582 44 523.8 44C465.7 44 407.3 44 349.2 47C291 50 233 56 174.8 54.5C116.7 53 58.3 44 29.2 39.5L0 35Z" fill="#c3875a"></path><path d="M0 157L29.2 153.5C58.3 150 116.7 143 174.8 139.5C233 136 291 136 349.2 141.5C407.3 147 465.7 158 523.8 163C582 168 640 167 698.2 174C756.3 181 814.7 196 872.8 194C931 192 989 173 1047.2 171.5C1105.3 170 1163.7 186 1221.8 188C1280 190 1338 178 1396.2 171C1454.3 164 1512.7 162 1570.8 169.5C1629 177 1687 194 1745.2 190.5C1803.3 187 1861.7 163 1890.8 151L1920 139L1920 107L1890.8 120.5C1861.7 134 1803.3 161 1745.2 163C1687 165 1629 142 1570.8 131C1512.7 120 1454.3 121 1396.2 126C1338 131 1280 140 1221.8 139.5C1163.7 139 1105.3 129 1047.2 132.5C989 136 931 153 872.8 157.5C814.7 162 756.3 154 698.2 150.5C640 147 582 148 523.8 142.5C465.7 137 407.3 125 349.2 118C291 111 233 109 174.8 107.5C116.7 106 58.3 105 29.2 104.5L0 104Z" fill="#b77341"></path><path d="M0 193L29.2 194C58.3 195 116.7 197 174.8 196.5C233 196 291 193 349.2 194.5C407.3 196 465.7 202 523.8 209.5C582 217 640 226 698.2 231.5C756.3 237 814.7 239 872.8 236.5C931 234 989 227 1047.2 227.5C1105.3 228 1163.7 236 1221.8 233C1280 230 1338 216 1396.2 206C1454.3 196 1512.7 190 1570.8 196.5C1629 203 1687 222 1745.2 227.5C1803.3 233 1861.7 225 1890.8 221L1920 217L1920 137L1890.8 149C1861.7 161 1803.3 185 1745.2 188.5C1687 192 1629 175 1570.8 167.5C1512.7 160 1454.3 162 1396.2 169C1338 176 1280 188 1221.8 186C1163.7 184 1105.3 168 1047.2 169.5C989 171 931 190 872.8 192C814.7 194 756.3 179 698.2 172C640 165 582 166 523.8 161C465.7 156 407.3 145 349.2 139.5C291 134 233 134 174.8 137.5C116.7 141 58.3 148 29.2 151.5L0 155Z" fill="#9e6338"></path><path d="M0 301L29.2 301C58.3 301 116.7 301 174.8 301C233 301 291 301 349.2 301C407.3 301 465.7 301 523.8 301C582 301 640 301 698.2 301C756.3 301 814.7 301 872.8 301C931 301 989 301 1047.2 301C1105.3 301 1163.7 301 1221.8 301C1280 301 1338 301 1396.2 301C1454.3 301 1512.7 301 1570.8 301C1629 301 1687 301 1745.2 301C1803.3 301 1861.7 301 1890.8 301L1920 301L1920 215L1890.8 219C1861.7 223 1803.3 231 1745.2 225.5C1687 220 1629 201 1570.8 194.5C1512.7 188 1454.3 194 1396.2 204C1338 214 1280 228 1221.8 231C1163.7 234 1105.3 226 1047.2 225.5C989 225 931 232 872.8 234.5C814.7 237 756.3 235 698.2 229.5C640 224 582 215 523.8 207.5C465.7 200 407.3 194 349.2 192.5C291 191 233 194 174.8 194.5C116.7 195 58.3 193 29.2 192L0 191Z" fill="#865430"></path></svg>