<svg id="visual" viewBox="0 0 150 10" width="150" height="10" xmlns="http://www.w3.org/2000/svg" xmlns:xlink="http://www.w3.org/1999/xlink" version="1.1"><path d="M0 3L2.3 3C4.7 3 9.3 3 13.8 3C18.3 3 22.7 3 27.2 3.2C31.7 3.3 36.3 3.7 41 3.7C45.7 3.7 50.3 3.3 54.8 3.3C59.3 3.3 63.7 3.7 68.2 3.5C72.7 3.3 77.3 2.7 81.8 2.3C86.3 2 90.7 2 95.2 2.2C99.7 2.3 104.3 2.7 109 2.8C113.7 3 118.3 3 122.8 3.3C127.3 3.7 131.7 4.3 136.2 4.2C140.7 4 145.3 3 147.7 2.5L150 2L150 0L147.7 0C145.3 0 140.7 0 136.2 0C131.7 0 127.3 0 122.8 0C118.3 0 113.7 0 109 0C104.3 0 99.7 0 95.2 0C90.7 0 86.3 0 81.8 0C77.3 0 72.7 0 68.2 0C63.7 0 59.3 0 54.8 0C50.3 0 45.7 0 41 0C36.3 0 31.7 0 27.2 0C22.7 0 18.3 0 13.8 0C9.3 0 4.7 0 2.3 0L0 0Z" fill="#db82ff"></path><path d="M0 4L2.3 4C4.7 4 9.3 4 13.8 4.2C18.3 4.3 22.7 4.7 27.2 5C31.7 5.3 36.3 5.7 41 5.5C45.7 5.3 50.3 4.7 54.8 4.5C59.3 4.3 63.7 4.7 68.2 4.5C72.7 4.3 77.3 3.7 81.8 3.3C86.3 3 90.7 3 95.2 3.2C99.7 3.3 104.3 3.7 109 3.8C113.7 4 118.3 4 122.8 4.3C127.3 4.7 131.7 5.3 136.2 5.3C140.7 5.3 145.3 4.7 147.7 4.3L150 4L150 0L147.7 0.5C145.3 1 140.7 2 136.2 2.2C131.7 2.3 127.3 1.7 122.8 1.3C118.3 1 113.7 1 109 0.8C104.3 0.7 99.7 0.3 95.2 0.2C90.7 0 86.3 0 81.8 0.3C77.3 0.7 72.7 1.3 68.2 1.5C63.7 1.7 59.3 1.3 54.8 1.3C50.3 1.3 45.7 1.7 41 1.7C36.3 1.7 31.7 1.3 27.2 1.2C22.7 1 18.3 1 13.8 1C9.3 1 4.7 1 2.3 1L0 1Z" fill="#d162fe"></path><path d="M0 7L2.3 6.8C4.7 6.7 9.3 6.3 13.8 6.3C18.3 6.3 22.7 6.7 27.2 6.8C31.7 7 36.3 7 41 6.7C45.7 6.3 50.3 5.7 54.8 5.5C59.3 5.3 63.7 5.7 68.2 5.7C72.7 5.7 77.3 5.3 81.8 5.2C86.3 5 90.7 5 95.2 5.3C99.7 5.7 104.3 6.3 109 6.3C113.7 6.3 118.3 5.7 122.8 5.8C127.3 6 131.7 7 136.2 7.2C140.7 7.3 145.3 6.7 147.7 6.3L150 6L150 2L147.7 2.3C145.3 2.7 140.7 3.3 136.2 3.3C131.7 3.3 127.3 2.7 122.8 2.3C118.3 2 113.7 2 109 1.8C104.3 1.7 99.7 1.3 95.2 1.2C90.7 1 86.3 1 81.8 1.3C77.3 1.7 72.7 2.3 68.2 2.5C63.7 2.7 59.3 2.3 54.8 2.5C50.3 2.7 45.7 3.3 41 3.5C36.3 3.7 31.7 3.3 27.2 3C22.7 2.7 18.3 2.3 13.8 2.2C9.3 2 4.7 2 2.3 2L0 2Z" fill="#c63bfd"></path><path d="M0 9L2.3 9C4.7 9 9.3 9 13.8 9.2C18.3 9.3 22.7 9.7 27.2 9.8C31.7 10 36.3 10 41 9.8C45.7 9.7 50.3 9.3 54.8 9.3C59.3 9.3 63.7 9.7 68.2 9.7C72.7 9.7 77.3 9.3 81.8 9.3C86.3 9.3 90.7 9.7 95.2 9.7C99.7 9.7 104.3 9.3 109 9.3C113.7 9.3 118.3 9.7 122.8 9.8C127.3 10 131.7 10 136.2 9.8C140.7 9.7 145.3 9.3 147.7 9.2L150 9L150 4L147.7 4.3C145.3 4.7 140.7 5.3 136.2 5.2C131.7 5 127.3 4 122.8 3.8C118.3 3.7 113.7 4.3 109 4.3C104.3 4.3 99.7 3.7 95.2 3.3C90.7 3 86.3 3 81.8 3.2C77.3 3.3 72.7 3.7 68.2 3.7C63.7 3.7 59.3 3.3 54.8 3.5C50.3 3.7 45.7 4.3 41 4.7C36.3 5 31.7 5 27.2 4.8C22.7 4.7 18.3 4.3 13.8 4.3C9.3 4.3 4.7 4.7 2.3 4.8L0 5Z" fill="#ad30dd"></path><path d="M0 11L2.3 11C4.7 11 9.3 11 13.8 11C18.3 11 22.7 11 27.2 11C31.7 11 36.3 11 41 11C45.7 11 50.3 11 54.8 11C59.3 11 63.7 11 68.2 11C72.7 11 77.3 11 81.8 11C86.3 11 90.7 11 95.2 11C99.7 11 104.3 11 109 11C113.7 11 118.3 11 122.8 11C127.3 11 131.7 11 136.2 11C140.7 11 145.3 11 147.7 11L150 11L150 7L147.7 7.2C145.3 7.3 140.7 7.7 136.2 7.8C131.7 8 127.3 8 122.8 7.8C118.3 7.7 113.7 7.3 109 7.3C104.3 7.3 99.7 7.7 95.2 7.7C90.7 7.7 86.3 7.3 81.8 7.3C77.3 7.3 72.7 7.7 68.2 7.7C63.7 7.7 59.3 7.3 54.8 7.3C50.3 7.3 45.7 7.7 41 7.8C36.3 8 31.7 8 27.2 7.8C22.7 7.7 18.3 7.3 13.8 7.2C9.3 7 4.7 7 2.3 7L0 7Z" fill="#9426be"></path></svg>